<?xml version="1.0" standalone="no"?>
<!DOCTYPE svg PUBLIC "-//W3C//DTD SVG 20010904//EN"
 "http://www.w3.org/TR/2001/REC-SVG-20010904/DTD/svg10.dtd">
<svg version="1.0" xmlns="http://www.w3.org/2000/svg"
 width="601.000000pt" height="604.000000pt" viewBox="0 0 601.000000 604.000000"
 preserveAspectRatio="xMidYMid meet">
<metadata>
Created by potrace 1.16, written by Peter Selinger 2001-2019
</metadata>
<g transform="translate(0.000000,604.000000) scale(0.100000,-0.100000)"
fill="#c70101" stroke="none">
<path d="M1448 6015 c-360 -51 -663 -201 -913 -451 -213 -213 -362 -483 -425
-773 -88 -395 -21 -801 188 -1158 l37 -63 890 3 889 2 28 150 c51 281 85 392
127 415 34 18 76 12 101 -15 35 -37 87 -241 128 -500 l7 -50 81 -5 c81 -5 102
-13 136 -55 23 -27 24 -22 38 180 46 681 102 1192 146 1327 28 85 109 118 153
62 59 -75 94 -349 196 -1564 50 -597 67 -780 95 -1050 11 -102 20 -193 20
-203 0 -10 4 -16 9 -13 4 3 11 34 15 68 3 35 13 126 21 203 13 121 39 496 60
846 5 79 12 115 26 138 39 64 -14 61 1126 61 l1039 0 51 88 c86 145 149 315
185 497 32 158 32 443 -1 595 -32 150 -82 295 -147 421 -337 658 -1086 992
-1807 804 -358 -93 -678 -318 -895 -628 -24 -34 -47 -62 -51 -62 -5 0 -35 36
-66 80 -85 117 -140 179 -235 263 -216 191 -472 317 -757 372 -140 28 -363 34
-495 15z"/>
<path d="M2991 4720 c-1 -8 -10 -98 -21 -200 -10 -102 -37 -419 -60 -705 -44
-564 -62 -732 -82 -764 -19 -31 -58 -41 -97 -25 -44 19 -67 75 -92 231 -11 70
-22 138 -25 151 -4 20 -10 22 -70 22 -119 0 -164 39 -183 159 -28 170 -45 251
-52 244 -4 -5 -19 -78 -34 -162 -27 -159 -42 -197 -88 -224 -17 -9 -221 -13
-882 -17 l-860 -5 1200 -1203 c881 -883 1212 -1208 1244 -1224 52 -25 144 -29
206 -9 33 11 252 225 1248 1219 664 664 1207 1210 1207 1214 0 5 -434 8 -964
8 l-964 0 -6 -82 c-3 -46 -13 -193 -21 -328 -36 -577 -85 -962 -136 -1062 -32
-64 -89 -86 -136 -53 -66 46 -99 302 -213 1655 -68 811 -113 1246 -119 1160z"/>
</g>
</svg>
